<svg xmlns="http://www.w3.org/2000/svg" width="38.26" height="38.26" viewBox="0 0 38.26 38.26"><defs><style>.a{fill:#424643;}</style></defs><g transform="translate(0.01 0.01)"><path class="a" d="M19.12,38.25A19.13,19.13,0,1,1,38.25,19.12,19.13,19.13,0,0,1,19.12,38.25Zm0-36.43a17.31,17.31,0,1,0,17.31,17.3A17.31,17.31,0,0,0,19.12,1.82Zm6.45,9.55a1.41,1.41,0,1,0,1.01.406,1.42,1.42,0,0,0-1.01-.406Zm-6.29,1.81a5.95,5.95,0,1,0,5.95,5.95,5.95,5.95,0,0,0-5.95-5.95Zm0,9.75a3.81,3.81,0,1,1,3.81-3.8,3.81,3.81,0,0,1-3.81,3.8Zm12-8.75A7.26,7.26,0,0,0,24,6.93H14.46A7.26,7.26,0,0,0,7.2,14.18v9.58A7.26,7.26,0,0,0,14.46,31H24a7.26,7.26,0,0,0,7.25-7.25ZM29,23.76a5,5,0,0,1-5,5H14.46a5,5,0,0,1-5-5V14.18a5,5,0,0,1,5-5H24a5,5,0,0,1,5,5Z"/></g></svg>