<svg xmlns="http://www.w3.org/2000/svg" width="38.5" height="38.5" viewBox="0 0 38.5 38.5"><defs><style>.a,.b{fill:#424643;}.b{fill-rule:evenodd;}</style></defs><path class="a" d="M19.25,38.5A19.25,19.25,0,1,1,38.5,19.25,19.25,19.25,0,0,1,19.25,38.5Zm0-36.43A17.18,17.18,0,1,0,36.43,19.25,17.18,17.18,0,0,0,19.25,2.07Z"/><path class="b" d="M20.16,6.72a11.63,11.63,0,0,0-9.77,17.92L8.63,28.53A1,1,0,0,0,9.55,30a1.24,1.24,0,0,0,.27,0l4.86-1.34A11.62,11.62,0,1,0,20.16,6.72Zm0,21.21a9.61,9.61,0,0,1-4.83-1.3,1,1,0,0,0-.51-.14.84.84,0,0,0-.27,0l-3.18.87L12.48,25a1,1,0,0,0-.1-1,9.48,9.48,0,0,1-1.81-5.61,9.59,9.59,0,1,1,9.59,9.59Z"/><path class="b" d="M24.63,20.08a2,2,0,0,0-1.7-.38c-.44.18-.72.87-1,1.22a.43.43,0,0,1-.55.12,7.73,7.73,0,0,1-3.83-3.28.48.48,0,0,1,.06-.64,2.48,2.48,0,0,0,.7-1.13A2.52,2.52,0,0,0,18,14.65a3.16,3.16,0,0,0-1-1.48,1.34,1.34,0,0,0-1.47.22,3,3,0,0,0-1,2.36,3.2,3.2,0,0,0,.09.75,6.72,6.72,0,0,0,.72,1.65,11.21,11.21,0,0,0,.75,1.14,11.76,11.76,0,0,0,3.26,3,9.93,9.93,0,0,0,2,1,4.45,4.45,0,0,0,2.36.37,2.85,2.85,0,0,0,2.14-1.59,1.34,1.34,0,0,0,.1-.81C25.84,20.69,25.08,20.35,24.63,20.08Z"/></svg>