<svg xmlns="http://www.w3.org/2000/svg" width="38.5" height="38.5" viewBox="0 0 38.5 38.5"><defs><style>.a,.b{fill:#424643;}.b{fill-rule:evenodd;}</style></defs><path class="a" d="M19.25,38.5A19.25,19.25,0,1,1,38.5,19.25,19.25,19.25,0,0,1,19.25,38.5Zm0-36.43A17.18,17.18,0,1,0,36.43,19.25,17.18,17.18,0,0,0,19.25,2.07Z"/><path class="b" d="M16.23,19.34V30.5a.29.29,0,0,0,.29.29h4.15A.29.29,0,0,0,21,30.5V19.16h3a.29.29,0,0,0,.29-.27l.29-3.41a.3.3,0,0,0-.29-.32H21V12.74a1,1,0,0,1,1-1h2.3a.29.29,0,0,0,.29-.29V8a.29.29,0,0,0-.29-.29H20.39a4.16,4.16,0,0,0-4.16,4.16v3.29H14.16a.29.29,0,0,0-.29.29v3.42a.29.29,0,0,0,.29.29h2.07Z"/></svg>