<svg xmlns="http://www.w3.org/2000/svg" width="38.5" height="38.5" viewBox="0 0 38.5 38.5"><defs><style>.a{fill:#424643;}</style></defs><path class="a" d="M19.25,38.5A19.25,19.25,0,1,1,38.5,19.25,19.25,19.25,0,0,1,19.25,38.5Zm0-36.43A17.18,17.18,0,1,0,36.43,19.25,17.18,17.18,0,0,0,19.25,2.07Z"/><path class="a" d="M30.78,16.33a5,5,0,0,0-5-4.94H13a4.94,4.94,0,0,0-4.94,4.94v6A4.94,4.94,0,0,0,13,27.28H25.83a5,5,0,0,0,5-4.94Zm-8.09,3.31-5.12,2.8c-.22.12-.42,0-.42-.29V16.39a.29.29,0,0,1,.43-.29l5.15,3a.33.33,0,0,1-.04.54Z"/></svg>